<svg width="465" height="465" viewBox="0 0 465 465" fill="none" xmlns="http://www.w3.org/2000/svg">
<g clip-path="url(#clip0_5_2)">
<path d="M394.33 105.596H318.194C341.138 83.224 355.41 52 355.41 17.5C355.41 7.835 347.575 0 337.91 0C293.124 0 253.853 24.045 232.314 59.9C210.775 24.045 171.504 0 126.719 0C117.054 0 109.219 7.835 109.219 17.5C109.219 52 123.492 83.224 146.435 105.596H70.298C60.633 105.596 52.798 113.431 52.798 123.096V447.129C52.798 456.794 60.633 464.629 70.298 464.629H394.33C403.995 464.629 411.83 456.794 411.83 447.129V123.096C411.83 113.431 403.995 105.596 394.33 105.596V105.596ZM376.83 267.612H249.814V140.596H376.83V267.612ZM318.184 37.227C310.659 69.992 284.806 95.845 252.04 103.37C259.566 70.604 285.419 44.751 318.184 37.227ZM212.588 103.369C179.823 95.844 153.97 69.991 146.445 37.226C179.21 44.751 205.063 70.604 212.588 103.369ZM214.814 140.596V267.612H87.798V140.596H214.814V140.596ZM87.798 302.612H214.814V429.629H87.798V302.612ZM249.814 429.628V302.612H376.83V429.629H249.814V429.628Z" fill="#48CAE4"/>
</g>
<defs>
<clipPath id="clip0_5_2">
<rect width="464.628" height="464.628" fill="white"/>
</clipPath>
</defs>
</svg>
